<svg width="20" height="20" viewBox="0 0 20 20" fill="none" xmlns="http://www.w3.org/2000/svg">
<path d="M15.625 2.49999H12.7922C12.441 2.10681 12.0108 1.79223 11.5296 1.57684C11.0484 1.36145 10.5272 1.25011 10 1.25011C9.47282 1.25011 8.95158 1.36145 8.47041 1.57684C7.98924 1.79223 7.55899 2.10681 7.20781 2.49999H4.375C4.04348 2.49999 3.72554 2.63169 3.49112 2.86611C3.2567 3.10053 3.125 3.41847 3.125 3.74999V16.875C3.125 17.2065 3.2567 17.5245 3.49112 17.7589C3.72554 17.9933 4.04348 18.125 4.375 18.125H15.625C15.9565 18.125 16.2745 17.9933 16.5089 17.7589C16.7433 17.5245 16.875 17.2065 16.875 16.875V3.74999C16.875 3.41847 16.7433 3.10053 16.5089 2.86611C16.2745 2.63169 15.9565 2.49999 15.625 2.49999ZM10 2.49999C10.663 2.49999 11.2989 2.76339 11.7678 3.23223C12.2366 3.70107 12.5 4.33695 12.5 4.99999H7.5C7.5 4.33695 7.76339 3.70107 8.23223 3.23223C8.70107 2.76339 9.33696 2.49999 10 2.49999ZM12.5 12.5H7.5C7.33424 12.5 7.17527 12.4341 7.05806 12.3169C6.94085 12.1997 6.875 12.0408 6.875 11.875C6.875 11.7092 6.94085 11.5503 7.05806 11.4331C7.17527 11.3158 7.33424 11.25 7.5 11.25H12.5C12.6658 11.25 12.8247 11.3158 12.9419 11.4331C13.0592 11.5503 13.125 11.7092 13.125 11.875C13.125 12.0408 13.0592 12.1997 12.9419 12.3169C12.8247 12.4341 12.6658 12.5 12.5 12.5ZM12.5 9.99999H7.5C7.33424 9.99999 7.17527 9.93414 7.05806 9.81694C6.94085 9.69973 6.875 9.54075 6.875 9.37499C6.875 9.20923 6.94085 9.05026 7.05806 8.93305C7.17527 8.81584 7.33424 8.74999 7.5 8.74999H12.5C12.6658 8.74999 12.8247 8.81584 12.9419 8.93305C13.0592 9.05026 13.125 9.20923 13.125 9.37499C13.125 9.54075 13.0592 9.69973 12.9419 9.81694C12.8247 9.93414 12.6658 9.99999 12.5 9.99999Z" fill="#1153B5"/>
</svg>
