<svg width="20" height="20" viewBox="0 0 20 20" fill="none" xmlns="http://www.w3.org/2000/svg">
<path d="M17.2223 16.3755L13.4671 12.621C14.5555 11.3143 15.0982 9.63827 14.9824 7.94158C14.8666 6.24488 14.1011 4.65817 12.8451 3.5115C11.5892 2.36484 9.93956 1.74652 8.23936 1.78516C6.53915 1.82379 4.9193 2.51643 3.71676 3.71896C2.51423 4.9215 1.8216 6.54135 1.78296 8.24155C1.74432 9.94176 2.36264 11.5914 3.50931 12.8473C4.65597 14.1033 6.24269 14.8688 7.93938 14.9846C9.63607 15.1004 11.3121 14.5577 12.6188 13.4693L16.3733 17.2245C16.4291 17.2803 16.4953 17.3245 16.5681 17.3547C16.6409 17.3848 16.719 17.4004 16.7978 17.4004C16.8767 17.4004 16.9547 17.3848 17.0276 17.3547C17.1004 17.3245 17.1666 17.2803 17.2223 17.2245C17.2781 17.1688 17.3223 17.1026 17.3525 17.0298C17.3826 16.9569 17.3982 16.8789 17.3982 16.8C17.3982 16.7212 17.3826 16.6431 17.3525 16.5703C17.3223 16.4975 17.2781 16.4313 17.2223 16.3755ZM2.99783 8.40002C2.99783 7.33201 3.31453 6.28797 3.90789 5.39995C4.50125 4.51192 5.34462 3.81979 6.33134 3.41108C7.31806 3.00236 8.40382 2.89542 9.45132 3.10378C10.4988 3.31214 11.461 3.82644 12.2162 4.58165C12.9714 5.33685 13.4857 6.29904 13.6941 7.34654C13.9024 8.39403 13.7955 9.47979 13.3868 10.4665C12.9781 11.4532 12.2859 12.2966 11.3979 12.89C10.5099 13.4833 9.46585 13.8 8.39783 13.8C6.96615 13.7984 5.59356 13.229 4.5812 12.2166C3.56885 11.2043 2.99942 9.83171 2.99783 8.40002Z" fill="black" fill-opacity="0.5"/>
</svg>
