<svg width="20" height="20" viewBox="0 0 20 20" fill="none" xmlns="http://www.w3.org/2000/svg">
<path d="M16.5632 15.6255C16.5633 16.036 16.4735 16.4416 16.3001 16.8137C16.1267 17.1858 15.874 17.5154 15.5597 17.7795C15.2454 18.0435 14.8771 18.2355 14.4806 18.3421C14.0842 18.4486 13.6692 18.467 13.2649 18.3961C12.8606 18.3252 12.4767 18.1667 12.1401 17.9316C11.8036 17.6965 11.5226 17.3906 11.3169 17.0354C11.1112 16.6801 10.9857 16.2842 10.9493 15.8753C10.9129 15.4664 10.9665 15.0545 11.1062 14.6685L6.96557 12.0084C6.57011 12.3963 6.06891 12.6588 5.52483 12.7629C4.98076 12.867 4.41804 12.8082 3.90729 12.5937C3.39653 12.3793 2.96048 12.0188 2.65383 11.5574C2.34718 11.0961 2.18359 10.5545 2.18359 10.0005C2.18359 9.4466 2.34718 8.90498 2.65383 8.44364C2.96048 7.98231 3.39653 7.6218 3.90729 7.40735C4.41804 7.1929 4.98076 7.13405 5.52483 7.23819C6.06891 7.34233 6.57011 7.60482 6.96557 7.99273L11.1062 5.33648C10.8691 4.68496 10.8804 3.96891 11.1378 3.32517C11.3953 2.68142 11.881 2.15512 12.502 1.84682C13.123 1.53852 13.8358 1.46985 14.5043 1.65392C15.1727 1.83799 15.7499 2.2619 16.1256 2.84465C16.5012 3.4274 16.649 4.12812 16.5406 4.81293C16.4323 5.49774 16.0754 6.11861 15.5382 6.55692C15.001 6.99522 14.3211 7.22022 13.6285 7.18893C12.9358 7.15763 12.279 6.87223 11.7835 6.38727L7.64292 9.04742C7.8667 9.66582 7.8667 10.3431 7.64292 10.9615L11.7835 13.6216C12.1789 13.2347 12.6795 12.973 13.2228 12.8692C13.7662 12.7654 14.328 12.824 14.8382 13.0379C15.3483 13.2518 15.7841 13.6114 16.0909 14.0716C16.3977 14.5319 16.562 15.0724 16.5632 15.6255Z" fill="#1153B5" fill-opacity="0.24"/>
</svg>
