<svg width="32" height="32" viewBox="0 0 32 32" fill="none" xmlns="http://www.w3.org/2000/svg">
<path d="M27.4999 21.1369L15.9999 27.8431L4.49989 21.1369C4.2722 21.0235 4.00986 21.0012 3.76627 21.0744C3.52269 21.1477 3.31616 21.311 3.18873 21.5311C3.0613 21.7512 3.02255 22.0116 3.08035 22.2593C3.13816 22.507 3.28819 22.7234 3.49989 22.8644L15.4999 29.8644C15.6528 29.9536 15.8266 30.0005 16.0036 30.0005C16.1806 30.0005 16.3545 29.9536 16.5074 29.8644L28.5074 22.8644C28.6227 22.7992 28.7238 22.7117 28.805 22.6071C28.8862 22.5025 28.9458 22.3828 28.9803 22.255C29.0149 22.1271 29.0237 21.9937 29.0063 21.8624C28.9888 21.7311 28.9455 21.6046 28.8788 21.4902C28.8121 21.3759 28.7233 21.2759 28.6176 21.196C28.512 21.1162 28.3915 21.0582 28.2632 21.0253C28.1349 20.9925 28.0014 20.9854 27.8704 21.0046C27.7393 21.0237 27.6134 21.0687 27.4999 21.1369Z" fill="#343330"/>
<path d="M27.4999 15.1369L15.9999 21.8431L4.49989 15.1369C4.2722 15.0235 4.00986 15.0012 3.76627 15.0744C3.52269 15.1477 3.31616 15.311 3.18873 15.5311C3.0613 15.7512 3.02255 16.0116 3.08035 16.2593C3.13816 16.507 3.28819 16.7234 3.49989 16.8644L15.4999 23.8644C15.6528 23.9536 15.8266 24.0005 16.0036 24.0005C16.1806 24.0005 16.3545 23.9536 16.5074 23.8644L28.5074 16.8644C28.6227 16.7992 28.7238 16.7117 28.805 16.6071C28.8862 16.5025 28.9458 16.3828 28.9803 16.255C29.0149 16.1271 29.0237 15.9937 29.0063 15.8624C28.9888 15.7311 28.9455 15.6046 28.8788 15.4902C28.8121 15.3759 28.7233 15.2759 28.6176 15.196C28.512 15.1162 28.3915 15.0582 28.2632 15.0253C28.1349 14.9925 28.0014 14.9854 27.8704 15.0046C27.7393 15.0237 27.6134 15.0687 27.4999 15.1369Z" fill="#343330"/>
<path d="M3.49999 10.8637L15.5 17.8637C15.6529 17.9528 15.8267 17.9998 16.0037 17.9998C16.1807 17.9998 16.3546 17.9528 16.5075 17.8637L28.5075 10.8637C28.6584 10.7756 28.7837 10.6495 28.8707 10.4979C28.9578 10.3464 29.0036 10.1747 29.0036 9.9999C29.0036 9.82513 28.9578 9.65342 28.8707 9.50187C28.7837 9.35031 28.6584 9.22422 28.5075 9.13615L16.5075 2.13615C16.3546 2.04698 16.1807 2 16.0037 2C15.8267 2 15.6529 2.04698 15.5 2.13615L3.49999 9.13615C3.34903 9.22422 3.22379 9.35031 3.13675 9.50187C3.04971 9.65342 3.00391 9.82513 3.00391 9.9999C3.00391 10.1747 3.04971 10.3464 3.13675 10.4979C3.22379 10.6495 3.34903 10.7756 3.49999 10.8637Z" fill="#343330"/>
</svg>
