<svg width="163" height="182" viewBox="0 0 163 182" fill="none" xmlns="http://www.w3.org/2000/svg">
<path d="M43.0708 0.531726C22.6731 -4.09251 -4.1677 22.4244 0.544872 42.0584L43.0708 0.531726Z" fill="#1153B5"></path>
<path d="M69.4985 8.90026C39.241 2.04077 -0.574133 41.3755 6.41639 70.5001L69.4985 8.90026Z" fill="#1153B5"></path>
<path d="M82.6747 84.202H96.6942C97.5644 78.6316 98.2412 73.25 99.208 67.9628C101.138 56.3792 105.66 45.3539 112.454 35.6731C113.959 33.5893 115.676 31.6597 117.578 29.9138C119.232 28.2756 121.215 26.9903 123.403 26.1393C125.591 25.2883 127.936 24.8901 130.29 24.97C132.644 25.0499 134.955 25.6061 137.078 26.6033C139.2 27.6006 141.087 29.0172 142.62 30.7635C149.265 37.3818 154.088 45.534 156.64 54.4615C162.794 74.2336 164.509 95.0694 161.667 115.548C160.413 125.055 158.078 134.397 154.706 143.4C152.201 150.386 148.209 156.774 142.993 162.144C137.777 167.515 131.455 171.745 124.443 174.556C112.799 179.927 99.9942 182.458 87.1278 181.932C74.2615 181.406 61.7182 177.838 50.5749 171.535C43.8774 167.872 38.0197 162.908 33.3635 156.948C28.7073 150.989 25.3514 144.161 23.5028 136.885C18.4923 119.813 16.7228 101.99 18.2817 84.2964C18.9215 69.8794 22.5737 55.7423 29.0139 42.7542C31.2097 38.5189 34.0092 34.609 37.3289 31.1412C38.9855 29.1021 41.1146 27.4765 43.5407 26.3984C45.9669 25.3204 48.6206 24.8207 51.2833 24.9406C53.946 25.0604 56.5414 25.7964 58.8557 27.0878C61.17 28.3793 63.1369 30.1893 64.5944 32.3686C70.7307 39.3821 75.0425 47.7384 77.1636 56.7275C79.194 64.7527 81.1277 76.0824 82.6747 84.202C83.0614 85.2406 82.4813 83.0691 82.6747 84.202ZM113.808 140.851C111.874 143.494 110.037 145.76 108.49 148.215C106.943 150.67 108.49 152.652 111.197 152.464C113.948 152.352 116.691 152.1 119.415 151.708C123.525 151.185 127.682 152.233 131.018 154.635C133.338 156.24 135.659 157.94 138.076 159.356C138.581 159.561 139.124 159.667 139.671 159.667C140.219 159.667 140.761 159.561 141.266 159.356C141.991 158.542 142.401 157.507 142.427 156.429C142.57 154.701 142.57 152.964 142.427 151.236C141.779 148.385 141.817 145.426 142.539 142.592C143.26 139.758 144.645 137.126 146.584 134.903C147.963 133.301 149.162 131.56 150.162 129.71C150.443 129.346 150.611 128.911 150.645 128.456C150.679 128.002 150.577 127.547 150.352 127.148C150.127 126.749 149.789 126.421 149.377 126.206C148.966 125.99 148.5 125.896 148.035 125.933C144.747 125.933 141.46 126.5 138.366 126.783C139.724 129.82 139.925 133.231 138.932 136.4C137.939 139.569 135.818 142.286 132.951 144.061C129.852 145.81 126.211 146.41 122.695 145.751C119.179 145.092 116.024 143.218 113.808 140.473V140.851ZM44.387 126.311C40.8096 126.311 37.619 125.744 34.7184 125.744C31.8178 125.744 31.431 127.633 32.688 129.615C33.9449 131.598 36.072 134.336 37.8123 136.602C40.3022 139.634 41.4817 143.496 41.0997 147.365C40.7301 150.122 40.5042 152.895 40.4229 155.674C40.3792 156.258 40.4597 156.845 40.6593 157.397C40.859 157.95 41.1735 158.456 41.5831 158.884C42.1122 159.128 42.69 159.254 43.2751 159.254C43.8602 159.254 44.438 159.128 44.9671 158.884C47.2025 157.513 49.3647 156.032 51.4451 154.446C53.1098 153.167 55.0188 152.224 57.0606 151.673C59.1024 151.122 61.2362 150.973 63.3375 151.236C66.1603 151.597 69.0001 151.818 71.8458 151.897C74.4564 151.897 75.7133 150.009 74.3597 147.837C73.0061 145.666 70.6856 142.928 68.8486 140.473C59.7601 146.421 54.8291 147.46 49.5113 143.966C46.6501 142.096 44.5634 139.293 43.6246 136.059C42.6858 132.824 42.956 129.369 44.387 126.311ZM88.5725 159.167L90.893 163.132L93.7936 160.017L91.2798 156.712L88.5725 159.167Z" fill="#1153B5"></path>
</svg>